; NON-PLATED HOLES START AT T1
; THROUGH (PLATED) HOLES START AT T100
M48
INCH
T100C0.040278
T101C0.030000
T102C0.088356
T103C0.055118
T104C0.041333
T105C0.041361
T106C0.042000
T107C0.035000
T108C0.015748
%
T100
X025766Y021767
X012166Y021767
X014166Y021767
X021766Y002767
X013766Y002767
X022766Y021767
X010166Y021767
X009166Y021767
X008165Y021767
X023766Y021767
X018766Y002767
X020766Y002767
X024766Y021767
X012766Y002767
X022766Y002767
X014766Y002767
X013166Y021767
X015166Y021767
X017766Y002767
X019766Y021767
X011766Y002767
X021766Y021767
X017166Y021767
X024766Y002767
X011166Y021767
X025766Y002767
X018766Y021767
X016766Y002767
X020766Y021767
X016166Y021767
X015766Y002767
X023766Y002767
T101
X041583Y008666
X037538Y011493
X038540Y011493
X031347Y005302
X027803Y008631
X040402Y004694
X017782Y006483
X012270Y037192
X031347Y004300
X015599Y032467
X022685Y029711
X030559Y013749
X016992Y005302
X029378Y035617
X011268Y037192
X029378Y034615
X032313Y023019
X041583Y007664
X023687Y029711
X027803Y009633
X011268Y028138
X016780Y006483
X011268Y027137
X040402Y005696
X014597Y032467
X030559Y014751
X033315Y023019
X015991Y005302
T102
X044929Y034590
X044929Y023046
X044929Y030707
X044929Y030653
X044929Y026929
X044929Y026770
T103
X005362Y011211
X006358Y014936
X001432Y018873
X005366Y016908
X001432Y014933
X006354Y010211
X005366Y008247
X006354Y018873
X005362Y005302
X005362Y019873
X005362Y013963
X001432Y006271
X006358Y006274
X001432Y010211
T104
X007150Y037585
X016599Y037585
X019536Y037586
X041976Y032649
X041976Y024987
X002213Y037586
X041977Y033649
X020536Y037585
X015599Y037586
X003213Y037585
X041977Y025987
X041977Y029712
X006150Y037586
X041976Y028712
T105
X004213Y037586
X017599Y037586
X041977Y027711
X041977Y031648
X021536Y037586
X041977Y023987
X008150Y037586
T106
X017567Y034042
X014587Y034042
X006544Y035841
X008906Y030893
X018355Y026562
X008118Y012165
X008118Y015145
X003394Y029542
X018355Y029542
X008906Y033873
X003394Y026562
X006544Y032861
T107
X033315Y030318
X033646Y013570
X041189Y010751
X034827Y028137
X011662Y016507
X027016Y033255
X013236Y034830
X023717Y031467
X007725Y005302
X030315Y028318
X023473Y013357
X038071Y033648
X039221Y036979
X015780Y015688
X023536Y025775
X002213Y025562
X011725Y010814
X038040Y019475
X018551Y005892
X036071Y015837
X037252Y010483
X039614Y018688
X040402Y033255
X035921Y011239
X021110Y005892
X023717Y034467
X033071Y018837
X028591Y017901
X006087Y030105
X027347Y000971
X028591Y021900
X023016Y018688
X039221Y037979
X032071Y036648
X031740Y018688
X035921Y006239
X033071Y036648
X019536Y025775
X022355Y024593
X004575Y033467
X031347Y000971
X039614Y008058
X032921Y008239
X036071Y019837
X032071Y033648
X015780Y018688
X038827Y017570
X038827Y028137
X030559Y019869
X038071Y036648
X023473Y015357
X041189Y015869
X014780Y015688
X011331Y018688
X017173Y031680
X032134Y012782
X032921Y007239
X037252Y021050
X015268Y025775
X026473Y013357
X023473Y016357
X007725Y010814
X036071Y033648
X020323Y014420
X028984Y003333
X034827Y003333
X014024Y009302
X023717Y033467
X016780Y015688
X034071Y033648
X004575Y032467
X033071Y020837
X023473Y010633
X008512Y024200
X032921Y010239
X035921Y005239
X036071Y014837
X039614Y014688
X033071Y019837
X035921Y007239
X038827Y003333
X030890Y032467
X031740Y007664
X036071Y018837
X034890Y032467
X025835Y032467
X030315Y029318
X032984Y003333
X030622Y011601
X039614Y004058
X027016Y018688
X030315Y030318
X037646Y013570
X013780Y015688
X037071Y036648
X018355Y024593
X014780Y018688
X025835Y028467
X032921Y006239
X011268Y025775
X011268Y024593
X033071Y033648
X026622Y011601
X004575Y025381
X023717Y032467
X040008Y013570
X036071Y002152
X036071Y017837
X021898Y014357
X016780Y009239
X040071Y002152
X027079Y027743
X041583Y001365
X010087Y025562
X010087Y030105
X019142Y035617
X011662Y017507
X032921Y011239
X023473Y008633
X026473Y010633
X036071Y020837
X013236Y032830
X035071Y033648
X026473Y014357
X035921Y010239
X028921Y002152
X040402Y037255
X037252Y022168
X027740Y007664
X017173Y025562
X013173Y031680
X028984Y015932
X006544Y031286
X037071Y033648
X031740Y014688
X017992Y012389
X033071Y016837
X033315Y029318
X026473Y016357
X036071Y016837
X034827Y029318
X007331Y018688
X033071Y017837
X037252Y026168
X039221Y034499
X015268Y024593
X002213Y024562
X039221Y030499
X008575Y025381
X038827Y013570
X035921Y004239
X027866Y037979
X037252Y006483
X032921Y009239
X017173Y024562
X018551Y007664
X020717Y032467
X015142Y035617
X036071Y036648
X017780Y009239
X033071Y015837
X027410Y006483
X024984Y006089
X031410Y006483
X010087Y024562
X035071Y036648
X037583Y001365
X023473Y014357
X013236Y035830
X038040Y008058
X010236Y033830
X021110Y007664
X016780Y018688
X020717Y034467
X027016Y029255
X010236Y034830
X026473Y008633
X023473Y009633
X023079Y027743
X036071Y021837
X010236Y032830
X032921Y004239
X020717Y033467
X033315Y027318
X023866Y037979
X002544Y031286
X035921Y008239
X021898Y010357
X023473Y007633
X008575Y026562
X002213Y026562
X040008Y009570
X028984Y006089
X020323Y010420
X032921Y005239
X010087Y026562
X008662Y017507
X031071Y033648
X013780Y018688
X004575Y026562
X033315Y028318
X041189Y019869
X004512Y024200
X028984Y011932
X030559Y015869
X026473Y009633
X035921Y009239
X011725Y005302
X034071Y036648
X038040Y004058
X041189Y014751
X017173Y026562
X026473Y015357
X030315Y027318
X010236Y035830
X038827Y029318
X008662Y016507
X033071Y014837
X031071Y036648
X020717Y031467
X033071Y021837
X014024Y005302
X038040Y015475
X037252Y017050
X015992Y012389
X013236Y033830
X032921Y002152
X026473Y007633
X036134Y012782
T108
X023079Y020656
X021898Y020656
X020717Y020656
X017567Y001365
X020717Y004121
X016386Y004121
X011268Y020656
X024260Y020656
X011662Y004121
X015205Y004121
X030559Y023018
X014811Y020656
X028591Y014751
X026622Y004121
X017173Y020656
X009299Y028137
X010087Y020656
X010481Y004121
X015992Y020656
X008906Y020656
X012843Y004121
X025441Y004121
X017567Y004121
X012449Y020656
X022685Y038373
X040008Y021837
X013630Y020656
X024260Y004121
X026622Y020656
X023079Y004121
X014024Y004121
X021898Y004121
X007725Y020656
X018355Y020656
X019536Y020656
X006543Y020656
X018748Y004121
X025441Y020656
X018748Y001365
T00
M30
