G04 MADE WITH FRITZING*
G04 WWW.FRITZING.ORG*
G04 DOUBLE SIDED*
G04 HOLES PLATED*
G04 CONTOUR ON CENTER OF CONTOUR VECTOR*
%ASAXBY*%
%FSLAX23Y23*%
%MOIN*%
%OFA0B0*%
%SFA1.0B1.0*%
%ADD10C,0.072992*%
%ADD11C,0.085000*%
%ADD12C,0.084667*%
%ADD13C,0.084695*%
%ADD14C,0.092000*%
%ADD15C,0.080000*%
%ADD16C,0.134033*%
%ADD17C,0.100000*%
%ADD18C,0.075278*%
%ADD19C,0.104488*%
%ADD20R,0.085000X0.085000*%
%ADD21R,0.092000X0.092000*%
%ADD22R,0.001000X0.001000*%
%LNMASK0*%
G90*
G70*
G54D10*
X3056Y2302D03*
X2859Y1475D03*
X4001Y2184D03*
G54D11*
X2584Y3247D03*
X2584Y2847D03*
G54D10*
X930Y2814D03*
X2269Y3837D03*
X1875Y137D03*
X1757Y137D03*
G54D12*
X615Y3759D03*
X715Y3759D03*
G54D13*
X815Y3759D03*
G54D11*
X458Y3247D03*
X458Y3347D03*
G54D14*
X654Y3286D03*
X654Y3584D03*
G54D11*
X654Y3129D03*
X254Y3129D03*
G54D12*
X221Y3759D03*
X321Y3759D03*
G54D13*
X421Y3759D03*
G54D14*
X1757Y3404D03*
X1459Y3404D03*
G54D11*
X1914Y3562D03*
X1514Y3562D03*
X2372Y3147D03*
X2072Y3147D03*
X2372Y3247D03*
X2072Y3247D03*
X2372Y3347D03*
X2072Y3347D03*
X2372Y3447D03*
X2072Y3447D03*
G54D12*
X1560Y3759D03*
X1660Y3759D03*
G54D13*
X1760Y3759D03*
G54D11*
X1717Y3168D03*
X1317Y3168D03*
G54D12*
X1954Y3759D03*
X2054Y3759D03*
G54D13*
X2154Y3759D03*
G54D11*
X2308Y2774D03*
X2708Y2774D03*
X2702Y3326D03*
X2702Y2926D03*
G54D15*
X2269Y2971D03*
X2369Y2971D03*
G54D11*
X3032Y3032D03*
X3332Y3032D03*
X3032Y2932D03*
X3332Y2932D03*
X3032Y2832D03*
X3332Y2832D03*
X3032Y2732D03*
X3332Y2732D03*
X3883Y2814D03*
X3483Y2814D03*
X3883Y2932D03*
X3483Y2932D03*
X3107Y3365D03*
X3107Y3665D03*
X3207Y3365D03*
X3207Y3665D03*
X3307Y3365D03*
X3307Y3665D03*
X3407Y3365D03*
X3407Y3665D03*
X3507Y3365D03*
X3507Y3665D03*
X3607Y3365D03*
X3607Y3665D03*
X3707Y3365D03*
X3707Y3665D03*
X3807Y3365D03*
X3807Y3665D03*
G54D12*
X4198Y3365D03*
X4198Y3265D03*
G54D13*
X4198Y3165D03*
G54D16*
X4493Y3459D03*
X4493Y3071D03*
G54D11*
X4040Y3326D03*
X4040Y3726D03*
G54D15*
X2938Y3562D03*
X2938Y3462D03*
G54D11*
X2387Y3798D03*
X2787Y3798D03*
X3922Y3050D03*
X3922Y3450D03*
X3922Y3798D03*
X3922Y3698D03*
X3489Y3247D03*
X3089Y3247D03*
X3307Y2184D03*
X3607Y2184D03*
X3307Y2084D03*
X3607Y2084D03*
X3307Y1984D03*
X3607Y1984D03*
X3307Y1884D03*
X3607Y1884D03*
X3307Y1784D03*
X3607Y1784D03*
X3307Y1684D03*
X3607Y1684D03*
X3307Y1584D03*
X3607Y1584D03*
X3307Y1484D03*
X3607Y1484D03*
X2111Y589D03*
X1855Y589D03*
X2111Y766D03*
X1855Y766D03*
X3292Y1124D03*
X3592Y1124D03*
X3292Y1024D03*
X3592Y1024D03*
X3292Y924D03*
X3592Y924D03*
X3292Y824D03*
X3592Y824D03*
X3292Y724D03*
X3592Y724D03*
X3292Y624D03*
X3592Y624D03*
X3292Y524D03*
X3592Y524D03*
X3292Y424D03*
X3592Y424D03*
X1402Y530D03*
X1402Y930D03*
G54D15*
X1678Y648D03*
X1778Y648D03*
G54D11*
X866Y1751D03*
X1166Y1751D03*
X866Y1651D03*
X1166Y1651D03*
G54D14*
X812Y1515D03*
X812Y1217D03*
G54D17*
X537Y1691D03*
X536Y1396D03*
X536Y1987D03*
X635Y1887D03*
X636Y1494D03*
X143Y1887D03*
X143Y1493D03*
X537Y825D03*
X536Y530D03*
X536Y1121D03*
X635Y1021D03*
X636Y627D03*
X143Y1021D03*
X143Y627D03*
G54D11*
X733Y1869D03*
X1133Y1869D03*
X2702Y1869D03*
X2302Y1869D03*
X773Y1081D03*
X1173Y1081D03*
X773Y530D03*
X1173Y530D03*
G54D18*
X2177Y277D03*
X2277Y277D03*
X2377Y277D03*
X2477Y277D03*
X2577Y277D03*
X1717Y2177D03*
X1617Y2177D03*
X1517Y2177D03*
X1417Y2177D03*
X1317Y2177D03*
X1217Y2177D03*
X1117Y2177D03*
X1017Y2177D03*
X917Y2177D03*
X817Y2177D03*
X2577Y2177D03*
X2477Y2177D03*
X2377Y2177D03*
X2277Y2177D03*
X2177Y2177D03*
X2077Y2177D03*
X1977Y2177D03*
X1877Y2177D03*
X1277Y277D03*
X1177Y277D03*
X1377Y277D03*
X1477Y277D03*
X1577Y277D03*
X1677Y277D03*
X1777Y277D03*
X1877Y277D03*
X2077Y277D03*
G54D11*
X1678Y1869D03*
X1678Y1569D03*
X1578Y1869D03*
X1578Y1569D03*
X1478Y1869D03*
X1478Y1569D03*
X1378Y1869D03*
X1378Y1569D03*
G54D15*
X1699Y530D03*
X1599Y530D03*
G54D19*
X2426Y2066D03*
X2190Y2066D03*
X2308Y2066D03*
X2662Y2066D03*
X2544Y2066D03*
X2072Y2066D03*
X1954Y2066D03*
G54D11*
X221Y2456D03*
X221Y2556D03*
X221Y2656D03*
G54D19*
X1836Y2066D03*
G54D11*
X1009Y2456D03*
X1009Y2556D03*
X1009Y2656D03*
G54D19*
X1717Y2066D03*
X1599Y2066D03*
G54D11*
X1717Y2456D03*
X1717Y2556D03*
X1717Y2656D03*
G54D19*
X1363Y2066D03*
X773Y2066D03*
G54D11*
X851Y2420D03*
X451Y2420D03*
G54D19*
X1127Y2066D03*
X1009Y2066D03*
G54D11*
X458Y2538D03*
X858Y2538D03*
G54D19*
X1245Y2066D03*
X891Y2066D03*
G54D11*
X1127Y2578D03*
X1527Y2578D03*
G54D19*
X1481Y2066D03*
X654Y2066D03*
G54D11*
X458Y2656D03*
X858Y2656D03*
G54D19*
X2426Y412D03*
X2544Y412D03*
G54D11*
X1127Y2459D03*
X1527Y2459D03*
G54D19*
X2190Y412D03*
X2662Y412D03*
G54D11*
X1954Y2578D03*
X2354Y2578D03*
G54D19*
X2308Y412D03*
X2072Y412D03*
G54D15*
X1127Y2714D03*
X1127Y2814D03*
G54D19*
X1875Y412D03*
X1639Y412D03*
X1521Y412D03*
G54D14*
X1836Y2656D03*
X1836Y2954D03*
G54D19*
X1757Y412D03*
G54D14*
X339Y2656D03*
X339Y2954D03*
G54D19*
X1284Y412D03*
G54D11*
X1836Y2459D03*
X2236Y2459D03*
G54D19*
X1402Y412D03*
X1166Y412D03*
G54D11*
X1024Y3583D03*
X1324Y3583D03*
X1024Y3483D03*
X1324Y3483D03*
X1024Y3383D03*
X1324Y3383D03*
X1024Y3283D03*
X1324Y3283D03*
G54D19*
X1048Y412D03*
G54D15*
X1560Y3247D03*
X1460Y3247D03*
X1127Y3719D03*
X1227Y3719D03*
G54D11*
X2347Y1636D03*
X2647Y1636D03*
X2347Y1536D03*
X2647Y1536D03*
X2347Y1436D03*
X2647Y1436D03*
X2347Y1336D03*
X2647Y1336D03*
G54D14*
X891Y3089D03*
X891Y3387D03*
G54D11*
X1009Y3011D03*
X609Y3011D03*
X2032Y1042D03*
X2032Y1442D03*
X2190Y1436D03*
X2190Y1036D03*
X3365Y1357D03*
X3765Y1357D03*
X2347Y1063D03*
X2647Y1063D03*
X2347Y963D03*
X2647Y963D03*
X2347Y863D03*
X2647Y863D03*
X2347Y763D03*
X2647Y763D03*
X3174Y766D03*
X2774Y766D03*
X2898Y609D03*
X2498Y609D03*
G54D15*
X2780Y963D03*
X2780Y863D03*
G54D11*
X1678Y924D03*
X1778Y924D03*
X3056Y1587D03*
X3056Y1987D03*
X1599Y1239D03*
X1799Y1239D03*
X2859Y1790D03*
X2859Y2190D03*
X2662Y1160D03*
X3062Y1160D03*
X2898Y1593D03*
X2898Y1193D03*
X3174Y1469D03*
X3174Y1869D03*
X2741Y648D03*
X3141Y648D03*
X4119Y1587D03*
X4119Y1987D03*
X2892Y215D03*
X3292Y215D03*
X3613Y1278D03*
X3213Y1278D03*
X2898Y333D03*
X3298Y333D03*
X3725Y1705D03*
X3725Y2105D03*
X3725Y648D03*
X3725Y1048D03*
X3804Y1548D03*
X3804Y1948D03*
X3483Y333D03*
X3883Y333D03*
X3883Y1757D03*
X3883Y1357D03*
X4007Y215D03*
X3607Y215D03*
X4119Y1075D03*
X4119Y1475D03*
X3758Y137D03*
X4158Y137D03*
X3961Y1469D03*
X3961Y1869D03*
X3961Y406D03*
X3961Y806D03*
G54D15*
X3854Y1149D03*
X3754Y1149D03*
X4040Y469D03*
X4040Y570D03*
G54D11*
X4001Y957D03*
X4001Y1357D03*
X3804Y406D03*
X3804Y806D03*
G54D15*
X3056Y1375D03*
X3056Y1475D03*
X3135Y430D03*
X3135Y530D03*
G54D12*
X4198Y2599D03*
X4198Y2499D03*
G54D13*
X4198Y2399D03*
G54D16*
X4493Y2693D03*
X4493Y2305D03*
G54D11*
X2735Y97D03*
X3135Y97D03*
G54D12*
X4198Y2971D03*
X4198Y2871D03*
G54D13*
X4198Y2771D03*
G54D16*
X4493Y3065D03*
X4493Y2677D03*
G54D11*
X3725Y2617D03*
X3725Y2217D03*
G54D15*
X4158Y867D03*
X4158Y766D03*
X3231Y2302D03*
X3332Y2302D03*
G54D20*
X458Y3247D03*
G54D21*
X654Y3285D03*
X1758Y3404D03*
G54D20*
X2372Y3147D03*
X3032Y3032D03*
X3107Y3365D03*
X3922Y3798D03*
X3307Y2184D03*
X3292Y1124D03*
X866Y1751D03*
G54D21*
X812Y1516D03*
G54D20*
X1678Y1869D03*
G54D21*
X1836Y2655D03*
X339Y2655D03*
G54D20*
X1024Y3583D03*
X2347Y1636D03*
G54D21*
X891Y3088D03*
G54D20*
X2347Y1063D03*
X1678Y924D03*
X1599Y1239D03*
G54D22*
D02*
G04 End of Mask0*
M02*